<mxfile host="app.diagrams.net" agent="Mozilla/5.0 (Windows NT 10.0; Win64; x64) AppleWebKit/537.36 (KHTML, like Gecko) Chrome/127.0.0.0 Safari/537.36" version="24.7.5" pages="3">
  <diagram name="Page-1" id="t-keU7qonHVR9CO4EsGE">
    <mxGraphModel dx="1400" dy="707" grid="0" gridSize="10" guides="1" tooltips="1" connect="1" arrows="1" fold="1" page="1" pageScale="1" pageWidth="827" pageHeight="1169" math="0" shadow="0">
      <root>
        <mxCell id="0" />
        <mxCell id="1" parent="0" />
        <mxCell id="8qcISal-hsTOiyEhlamu-47" style="edgeStyle=orthogonalEdgeStyle;shape=link;rounded=0;orthogonalLoop=1;jettySize=auto;html=1;exitX=0.5;exitY=1;exitDx=0;exitDy=0;entryX=0.5;entryY=0;entryDx=0;entryDy=0;" parent="1" source="8qcISal-hsTOiyEhlamu-2" target="8qcISal-hsTOiyEhlamu-24" edge="1">
          <mxGeometry relative="1" as="geometry" />
        </mxCell>
        <mxCell id="8qcISal-hsTOiyEhlamu-2" value="Dnevnik prehrane" style="rounded=0;whiteSpace=wrap;html=1;" parent="1" vertex="1">
          <mxGeometry x="354" y="140" width="120" height="60" as="geometry" />
        </mxCell>
        <mxCell id="8qcISal-hsTOiyEhlamu-36" style="edgeStyle=orthogonalEdgeStyle;rounded=0;orthogonalLoop=1;jettySize=auto;html=1;shape=link;" parent="1" source="8qcISal-hsTOiyEhlamu-12" edge="1">
          <mxGeometry relative="1" as="geometry">
            <mxPoint x="80" y="760" as="targetPoint" />
          </mxGeometry>
        </mxCell>
        <mxCell id="8qcISal-hsTOiyEhlamu-45" style="edgeStyle=orthogonalEdgeStyle;shape=link;rounded=0;orthogonalLoop=1;jettySize=auto;html=1;exitX=1;exitY=0.5;exitDx=0;exitDy=0;entryX=0;entryY=0.5;entryDx=0;entryDy=0;" parent="1" source="8qcISal-hsTOiyEhlamu-12" target="8qcISal-hsTOiyEhlamu-24" edge="1">
          <mxGeometry relative="1" as="geometry" />
        </mxCell>
        <mxCell id="8qcISal-hsTOiyEhlamu-12" value="Korsinik" style="rounded=0;whiteSpace=wrap;html=1;" parent="1" vertex="1">
          <mxGeometry x="100" y="270" width="120" height="60" as="geometry" />
        </mxCell>
        <mxCell id="8qcISal-hsTOiyEhlamu-46" style="edgeStyle=orthogonalEdgeStyle;shape=link;rounded=0;orthogonalLoop=1;jettySize=auto;html=1;exitX=1;exitY=0.5;exitDx=0;exitDy=0;entryX=0;entryY=0.5;entryDx=0;entryDy=0;" parent="1" source="8qcISal-hsTOiyEhlamu-24" target="8qcISal-hsTOiyEhlamu-25" edge="1">
          <mxGeometry relative="1" as="geometry" />
        </mxCell>
        <mxCell id="8qcISal-hsTOiyEhlamu-48" style="edgeStyle=orthogonalEdgeStyle;shape=link;rounded=0;orthogonalLoop=1;jettySize=auto;html=1;exitX=0;exitY=0.5;exitDx=0;exitDy=0;" parent="1" source="8qcISal-hsTOiyEhlamu-24" edge="1">
          <mxGeometry relative="1" as="geometry">
            <mxPoint x="320" y="760.7999877929688" as="targetPoint" />
          </mxGeometry>
        </mxCell>
        <mxCell id="8qcISal-hsTOiyEhlamu-24" value="Administrator" style="rounded=0;whiteSpace=wrap;html=1;" parent="1" vertex="1">
          <mxGeometry x="354" y="270" width="120" height="60" as="geometry" />
        </mxCell>
        <mxCell id="8qcISal-hsTOiyEhlamu-54" style="edgeStyle=orthogonalEdgeStyle;shape=link;rounded=0;orthogonalLoop=1;jettySize=auto;html=1;exitX=0;exitY=0.5;exitDx=0;exitDy=0;" parent="1" source="8qcISal-hsTOiyEhlamu-25" edge="1">
          <mxGeometry relative="1" as="geometry">
            <mxPoint x="560" y="765.5999755859375" as="targetPoint" />
          </mxGeometry>
        </mxCell>
        <mxCell id="8qcISal-hsTOiyEhlamu-25" value="Vlasnik sustava" style="rounded=0;whiteSpace=wrap;html=1;" parent="1" vertex="1">
          <mxGeometry x="600" y="270" width="120" height="60" as="geometry" />
        </mxCell>
        <mxCell id="8qcISal-hsTOiyEhlamu-39" style="edgeStyle=orthogonalEdgeStyle;shape=link;rounded=0;orthogonalLoop=1;jettySize=auto;html=1;" parent="1" edge="1">
          <mxGeometry relative="1" as="geometry">
            <mxPoint x="150" y="549.5" as="targetPoint" />
            <mxPoint x="80" y="550" as="sourcePoint" />
            <Array as="points">
              <mxPoint x="110" y="549.5" />
              <mxPoint x="110" y="550.5" />
            </Array>
          </mxGeometry>
        </mxCell>
        <mxCell id="8qcISal-hsTOiyEhlamu-27" value="Registracija i prijava" style="rounded=1;whiteSpace=wrap;html=1;arcSize=43;" parent="1" vertex="1">
          <mxGeometry x="150" y="360" width="120" height="60" as="geometry" />
        </mxCell>
        <mxCell id="8qcISal-hsTOiyEhlamu-28" value="Izrada profila" style="rounded=1;whiteSpace=wrap;html=1;arcSize=43;" parent="1" vertex="1">
          <mxGeometry x="150" y="440" width="120" height="60" as="geometry" />
        </mxCell>
        <mxCell id="8qcISal-hsTOiyEhlamu-29" value="Unos obroka" style="rounded=1;whiteSpace=wrap;html=1;arcSize=43;" parent="1" vertex="1">
          <mxGeometry x="150" y="520" width="120" height="60" as="geometry" />
        </mxCell>
        <mxCell id="8qcISal-hsTOiyEhlamu-30" value="Dnevni i tjedni izvještaji" style="rounded=1;whiteSpace=wrap;html=1;arcSize=43;" parent="1" vertex="1">
          <mxGeometry x="150" y="600" width="120" height="60" as="geometry" />
        </mxCell>
        <mxCell id="8qcISal-hsTOiyEhlamu-31" value="Praćenje napretka" style="rounded=1;whiteSpace=wrap;html=1;arcSize=43;" parent="1" vertex="1">
          <mxGeometry x="150" y="680" width="120" height="60" as="geometry" />
        </mxCell>
        <mxCell id="8qcISal-hsTOiyEhlamu-32" value="Upravljanje korisnicima" style="rounded=1;whiteSpace=wrap;html=1;arcSize=43;" parent="1" vertex="1">
          <mxGeometry x="400" y="360" width="120" height="60" as="geometry" />
        </mxCell>
        <mxCell id="8qcISal-hsTOiyEhlamu-33" value="Upravljanje bazom podataka hrane" style="rounded=1;whiteSpace=wrap;html=1;arcSize=43;" parent="1" vertex="1">
          <mxGeometry x="400" y="440" width="120" height="60" as="geometry" />
        </mxCell>
        <mxCell id="8qcISal-hsTOiyEhlamu-34" value="Sigurnost sustava" style="rounded=1;whiteSpace=wrap;html=1;arcSize=43;" parent="1" vertex="1">
          <mxGeometry x="400" y="520" width="120" height="60" as="geometry" />
        </mxCell>
        <mxCell id="8qcISal-hsTOiyEhlamu-41" style="edgeStyle=orthogonalEdgeStyle;shape=link;rounded=0;orthogonalLoop=1;jettySize=auto;html=1;" parent="1" edge="1">
          <mxGeometry relative="1" as="geometry">
            <mxPoint x="150" y="469.5" as="targetPoint" />
            <mxPoint x="80" y="470" as="sourcePoint" />
            <Array as="points">
              <mxPoint x="110" y="469.5" />
              <mxPoint x="110" y="470.5" />
            </Array>
          </mxGeometry>
        </mxCell>
        <mxCell id="8qcISal-hsTOiyEhlamu-42" style="edgeStyle=orthogonalEdgeStyle;shape=link;rounded=0;orthogonalLoop=1;jettySize=auto;html=1;" parent="1" edge="1">
          <mxGeometry relative="1" as="geometry">
            <mxPoint x="150" y="389.5" as="targetPoint" />
            <mxPoint x="80" y="390" as="sourcePoint" />
            <Array as="points">
              <mxPoint x="110" y="389.5" />
              <mxPoint x="110" y="390.5" />
            </Array>
          </mxGeometry>
        </mxCell>
        <mxCell id="8qcISal-hsTOiyEhlamu-43" style="edgeStyle=orthogonalEdgeStyle;shape=link;rounded=0;orthogonalLoop=1;jettySize=auto;html=1;" parent="1" edge="1">
          <mxGeometry relative="1" as="geometry">
            <mxPoint x="150" y="629.5" as="targetPoint" />
            <mxPoint x="80" y="630" as="sourcePoint" />
            <Array as="points">
              <mxPoint x="110" y="629.5" />
              <mxPoint x="110" y="630.5" />
            </Array>
          </mxGeometry>
        </mxCell>
        <mxCell id="8qcISal-hsTOiyEhlamu-44" style="edgeStyle=orthogonalEdgeStyle;shape=link;rounded=0;orthogonalLoop=1;jettySize=auto;html=1;" parent="1" edge="1">
          <mxGeometry relative="1" as="geometry">
            <mxPoint x="150" y="709.5" as="targetPoint" />
            <mxPoint x="80" y="710" as="sourcePoint" />
            <Array as="points">
              <mxPoint x="110" y="709.5" />
              <mxPoint x="110" y="710.5" />
            </Array>
          </mxGeometry>
        </mxCell>
        <mxCell id="8qcISal-hsTOiyEhlamu-51" style="edgeStyle=orthogonalEdgeStyle;shape=link;rounded=0;orthogonalLoop=1;jettySize=auto;html=1;" parent="1" edge="1">
          <mxGeometry relative="1" as="geometry">
            <mxPoint x="400" y="389.5" as="targetPoint" />
            <mxPoint x="320" y="390" as="sourcePoint" />
            <Array as="points">
              <mxPoint x="360" y="389.5" />
              <mxPoint x="360" y="390.5" />
            </Array>
          </mxGeometry>
        </mxCell>
        <mxCell id="8qcISal-hsTOiyEhlamu-52" style="edgeStyle=orthogonalEdgeStyle;shape=link;rounded=0;orthogonalLoop=1;jettySize=auto;html=1;" parent="1" edge="1">
          <mxGeometry relative="1" as="geometry">
            <mxPoint x="400" y="469.5" as="targetPoint" />
            <mxPoint x="320" y="470" as="sourcePoint" />
            <Array as="points">
              <mxPoint x="360" y="469.5" />
              <mxPoint x="360" y="470.5" />
            </Array>
          </mxGeometry>
        </mxCell>
        <mxCell id="8qcISal-hsTOiyEhlamu-53" style="edgeStyle=orthogonalEdgeStyle;shape=link;rounded=0;orthogonalLoop=1;jettySize=auto;html=1;" parent="1" edge="1">
          <mxGeometry relative="1" as="geometry">
            <mxPoint x="400" y="549.5" as="targetPoint" />
            <mxPoint x="320" y="550" as="sourcePoint" />
            <Array as="points">
              <mxPoint x="360" y="549.5" />
              <mxPoint x="360" y="550.5" />
            </Array>
          </mxGeometry>
        </mxCell>
        <mxCell id="8qcISal-hsTOiyEhlamu-55" value="Pregled izvještaja" style="rounded=1;whiteSpace=wrap;html=1;arcSize=43;" parent="1" vertex="1">
          <mxGeometry x="630" y="360" width="120" height="60" as="geometry" />
        </mxCell>
        <mxCell id="8qcISal-hsTOiyEhlamu-58" style="edgeStyle=orthogonalEdgeStyle;shape=link;rounded=0;orthogonalLoop=1;jettySize=auto;html=1;" parent="1" edge="1">
          <mxGeometry relative="1" as="geometry">
            <mxPoint x="630" y="390" as="targetPoint" />
            <mxPoint x="560" y="390.5" as="sourcePoint" />
            <Array as="points">
              <mxPoint x="600" y="390" />
              <mxPoint x="600" y="391" />
            </Array>
          </mxGeometry>
        </mxCell>
      </root>
    </mxGraphModel>
  </diagram>
  <diagram id="JAvrSwmxnuRPSLicdwiI" name="Page-2">
    <mxGraphModel dx="1050" dy="530" grid="1" gridSize="10" guides="1" tooltips="1" connect="1" arrows="1" fold="1" page="1" pageScale="1" pageWidth="827" pageHeight="1169" math="0" shadow="0">
      <root>
        <mxCell id="0" />
        <mxCell id="1" parent="0" />
        <mxCell id="QxMFWHYsgoYalzhRIhGh-4" style="edgeStyle=orthogonalEdgeStyle;rounded=0;orthogonalLoop=1;jettySize=auto;html=1;entryX=0.5;entryY=1;entryDx=0;entryDy=0;" parent="1" source="QxMFWHYsgoYalzhRIhGh-1" target="QxMFWHYsgoYalzhRIhGh-3" edge="1">
          <mxGeometry relative="1" as="geometry" />
        </mxCell>
        <mxCell id="QxMFWHYsgoYalzhRIhGh-1" value="Korisnik" style="rounded=0;whiteSpace=wrap;html=1;" parent="1" vertex="1">
          <mxGeometry x="354" y="330" width="120" height="60" as="geometry" />
        </mxCell>
        <mxCell id="QxMFWHYsgoYalzhRIhGh-6" style="edgeStyle=orthogonalEdgeStyle;rounded=0;orthogonalLoop=1;jettySize=auto;html=1;entryX=1;entryY=0.5;entryDx=0;entryDy=0;" parent="1" source="QxMFWHYsgoYalzhRIhGh-3" target="QxMFWHYsgoYalzhRIhGh-5" edge="1">
          <mxGeometry relative="1" as="geometry" />
        </mxCell>
        <mxCell id="QxMFWHYsgoYalzhRIhGh-7" value="Prijava" style="edgeLabel;html=1;align=center;verticalAlign=middle;resizable=0;points=[];" parent="QxMFWHYsgoYalzhRIhGh-6" vertex="1" connectable="0">
          <mxGeometry x="0.0082" y="-3" relative="1" as="geometry">
            <mxPoint y="-7" as="offset" />
          </mxGeometry>
        </mxCell>
        <mxCell id="QxMFWHYsgoYalzhRIhGh-3" value="Registracija korisnika" style="rounded=1;whiteSpace=wrap;html=1;" parent="1" vertex="1">
          <mxGeometry x="354" y="210" width="120" height="60" as="geometry" />
        </mxCell>
        <mxCell id="QxMFWHYsgoYalzhRIhGh-11" style="edgeStyle=orthogonalEdgeStyle;rounded=0;orthogonalLoop=1;jettySize=auto;html=1;entryX=0.5;entryY=0;entryDx=0;entryDy=0;" parent="1" source="QxMFWHYsgoYalzhRIhGh-5" target="QxMFWHYsgoYalzhRIhGh-8" edge="1">
          <mxGeometry relative="1" as="geometry" />
        </mxCell>
        <mxCell id="QxMFWHYsgoYalzhRIhGh-5" value="Profil korisnika" style="rounded=1;whiteSpace=wrap;html=1;" parent="1" vertex="1">
          <mxGeometry x="120" y="210" width="120" height="60" as="geometry" />
        </mxCell>
        <mxCell id="QxMFWHYsgoYalzhRIhGh-9" style="edgeStyle=orthogonalEdgeStyle;rounded=0;orthogonalLoop=1;jettySize=auto;html=1;entryX=0;entryY=0.5;entryDx=0;entryDy=0;" parent="1" source="QxMFWHYsgoYalzhRIhGh-8" target="QxMFWHYsgoYalzhRIhGh-1" edge="1">
          <mxGeometry relative="1" as="geometry" />
        </mxCell>
        <mxCell id="QxMFWHYsgoYalzhRIhGh-10" value="Pregled&amp;nbsp; svih&amp;nbsp;&lt;div&gt;dostupnih opcija&lt;/div&gt;" style="edgeLabel;html=1;align=center;verticalAlign=middle;resizable=0;points=[];" parent="QxMFWHYsgoYalzhRIhGh-9" vertex="1" connectable="0">
          <mxGeometry x="-0.0522" y="2" relative="1" as="geometry">
            <mxPoint y="-18" as="offset" />
          </mxGeometry>
        </mxCell>
        <mxCell id="QxMFWHYsgoYalzhRIhGh-8" value="Odabir odgovarajućih funkcija i postavljanje ciljeva" style="rounded=1;whiteSpace=wrap;html=1;" parent="1" vertex="1">
          <mxGeometry x="120" y="330" width="120" height="60" as="geometry" />
        </mxCell>
        <mxCell id="QxMFWHYsgoYalzhRIhGh-12" value="Unos dnevnog unosa hrane" style="rounded=1;whiteSpace=wrap;html=1;" parent="1" vertex="1">
          <mxGeometry x="354" y="460" width="120" height="60" as="geometry" />
        </mxCell>
        <mxCell id="QxMFWHYsgoYalzhRIhGh-13" style="edgeStyle=orthogonalEdgeStyle;rounded=0;orthogonalLoop=1;jettySize=auto;html=1;entryX=0.501;entryY=-0.062;entryDx=0;entryDy=0;entryPerimeter=0;" parent="1" source="QxMFWHYsgoYalzhRIhGh-1" target="QxMFWHYsgoYalzhRIhGh-12" edge="1">
          <mxGeometry relative="1" as="geometry" />
        </mxCell>
        <mxCell id="QxMFWHYsgoYalzhRIhGh-29" style="edgeStyle=orthogonalEdgeStyle;rounded=0;orthogonalLoop=1;jettySize=auto;html=1;entryX=0.5;entryY=1;entryDx=0;entryDy=0;" parent="1" source="QxMFWHYsgoYalzhRIhGh-14" target="QxMFWHYsgoYalzhRIhGh-28" edge="1">
          <mxGeometry relative="1" as="geometry" />
        </mxCell>
        <mxCell id="lK2T8OIMAoVo2WG_MeQW-1" value="Prikaz nutritivnih vrijednosti" style="edgeLabel;html=1;align=center;verticalAlign=middle;resizable=0;points=[];" vertex="1" connectable="0" parent="QxMFWHYsgoYalzhRIhGh-29">
          <mxGeometry x="0.14" y="-2" relative="1" as="geometry">
            <mxPoint y="4" as="offset" />
          </mxGeometry>
        </mxCell>
        <mxCell id="QxMFWHYsgoYalzhRIhGh-14" value="Prepoznavanje hrane iz baze podataka" style="rounded=1;whiteSpace=wrap;html=1;" parent="1" vertex="1">
          <mxGeometry x="560" y="330" width="120" height="60" as="geometry" />
        </mxCell>
        <mxCell id="QxMFWHYsgoYalzhRIhGh-26" style="edgeStyle=orthogonalEdgeStyle;rounded=0;orthogonalLoop=1;jettySize=auto;html=1;" parent="1" source="QxMFWHYsgoYalzhRIhGh-18" target="QxMFWHYsgoYalzhRIhGh-14" edge="1">
          <mxGeometry relative="1" as="geometry" />
        </mxCell>
        <mxCell id="QxMFWHYsgoYalzhRIhGh-27" value="Automatski unos&lt;div&gt;podataka&lt;/div&gt;" style="edgeLabel;html=1;align=center;verticalAlign=middle;resizable=0;points=[];" parent="QxMFWHYsgoYalzhRIhGh-26" vertex="1" connectable="0">
          <mxGeometry x="0.098" y="-3" relative="1" as="geometry">
            <mxPoint as="offset" />
          </mxGeometry>
        </mxCell>
        <mxCell id="QxMFWHYsgoYalzhRIhGh-18" value="Ažuriranje podataka o hrani" style="rounded=1;whiteSpace=wrap;html=1;" parent="1" vertex="1">
          <mxGeometry x="560" y="460" width="120" height="60" as="geometry" />
        </mxCell>
        <mxCell id="QxMFWHYsgoYalzhRIhGh-19" style="edgeStyle=orthogonalEdgeStyle;rounded=0;orthogonalLoop=1;jettySize=auto;html=1;entryX=-0.029;entryY=0.49;entryDx=0;entryDy=0;entryPerimeter=0;" parent="1" source="QxMFWHYsgoYalzhRIhGh-12" target="QxMFWHYsgoYalzhRIhGh-18" edge="1">
          <mxGeometry relative="1" as="geometry" />
        </mxCell>
        <mxCell id="QxMFWHYsgoYalzhRIhGh-23" value="" style="endArrow=classic;html=1;rounded=0;" parent="1" edge="1">
          <mxGeometry width="50" height="50" relative="1" as="geometry">
            <mxPoint x="260" y="270" as="sourcePoint" />
            <mxPoint x="330" y="320" as="targetPoint" />
          </mxGeometry>
        </mxCell>
        <mxCell id="QxMFWHYsgoYalzhRIhGh-24" value="Pregled unosa hrane" style="edgeLabel;html=1;align=center;verticalAlign=middle;resizable=0;points=[];rotation=36;" parent="QxMFWHYsgoYalzhRIhGh-23" vertex="1" connectable="0">
          <mxGeometry x="-0.1206" y="2" relative="1" as="geometry">
            <mxPoint x="8" y="-10" as="offset" />
          </mxGeometry>
        </mxCell>
        <mxCell id="QxMFWHYsgoYalzhRIhGh-28" value="Statistika prehrane" style="rounded=1;whiteSpace=wrap;html=1;" parent="1" vertex="1">
          <mxGeometry x="560" y="210" width="120" height="60" as="geometry" />
        </mxCell>
        <mxCell id="QxMFWHYsgoYalzhRIhGh-31" value="" style="endArrow=classic;html=1;rounded=0;" parent="1" edge="1">
          <mxGeometry width="50" height="50" relative="1" as="geometry">
            <mxPoint x="550" y="270" as="sourcePoint" />
            <mxPoint x="480" y="330" as="targetPoint" />
          </mxGeometry>
        </mxCell>
        <mxCell id="QxMFWHYsgoYalzhRIhGh-32" value="Dnevni, tjedni izvještaji" style="edgeLabel;html=1;align=center;verticalAlign=middle;resizable=0;points=[];rotation=321;" parent="QxMFWHYsgoYalzhRIhGh-31" vertex="1" connectable="0">
          <mxGeometry x="0.1245" relative="1" as="geometry">
            <mxPoint x="-1" y="-24" as="offset" />
          </mxGeometry>
        </mxCell>
      </root>
    </mxGraphModel>
  </diagram>
  <diagram id="KspK0jGGOvat1MkSJEqS" name="Page-3">
    <mxGraphModel dx="2048" dy="608" grid="1" gridSize="10" guides="1" tooltips="1" connect="1" arrows="1" fold="1" page="1" pageScale="1" pageWidth="827" pageHeight="1169" math="0" shadow="0">
      <root>
        <mxCell id="0" />
        <mxCell id="1" parent="0" />
        <mxCell id="gtM7jIJjJAzTYsThCUeF-66" style="edgeStyle=orthogonalEdgeStyle;shape=link;rounded=0;orthogonalLoop=1;jettySize=auto;html=1;exitX=0;exitY=0.5;exitDx=0;exitDy=0;entryX=1;entryY=0.5;entryDx=0;entryDy=0;" parent="1" source="gtM7jIJjJAzTYsThCUeF-2" target="gtM7jIJjJAzTYsThCUeF-8" edge="1">
          <mxGeometry relative="1" as="geometry" />
        </mxCell>
        <mxCell id="gtM7jIJjJAzTYsThCUeF-67" style="edgeStyle=orthogonalEdgeStyle;shape=link;rounded=0;orthogonalLoop=1;jettySize=auto;html=1;exitX=1;exitY=0.5;exitDx=0;exitDy=0;entryX=0;entryY=0.5;entryDx=0;entryDy=0;" parent="1" source="gtM7jIJjJAzTYsThCUeF-2" target="gtM7jIJjJAzTYsThCUeF-15" edge="1">
          <mxGeometry relative="1" as="geometry" />
        </mxCell>
        <mxCell id="gtM7jIJjJAzTYsThCUeF-68" style="edgeStyle=orthogonalEdgeStyle;rounded=0;orthogonalLoop=1;jettySize=auto;html=1;exitX=0.25;exitY=0;exitDx=0;exitDy=0;entryX=0.5;entryY=1;entryDx=0;entryDy=0;" parent="1" source="gtM7jIJjJAzTYsThCUeF-2" target="gtM7jIJjJAzTYsThCUeF-31" edge="1">
          <mxGeometry relative="1" as="geometry" />
        </mxCell>
        <mxCell id="gtM7jIJjJAzTYsThCUeF-69" style="edgeStyle=orthogonalEdgeStyle;rounded=0;orthogonalLoop=1;jettySize=auto;html=1;exitX=0.5;exitY=0;exitDx=0;exitDy=0;entryX=0.5;entryY=1;entryDx=0;entryDy=0;" parent="1" source="gtM7jIJjJAzTYsThCUeF-2" target="gtM7jIJjJAzTYsThCUeF-32" edge="1">
          <mxGeometry relative="1" as="geometry" />
        </mxCell>
        <mxCell id="gtM7jIJjJAzTYsThCUeF-70" style="edgeStyle=orthogonalEdgeStyle;rounded=0;orthogonalLoop=1;jettySize=auto;html=1;exitX=1;exitY=0;exitDx=0;exitDy=0;entryX=0.5;entryY=1;entryDx=0;entryDy=0;" parent="1" source="gtM7jIJjJAzTYsThCUeF-2" target="gtM7jIJjJAzTYsThCUeF-33" edge="1">
          <mxGeometry relative="1" as="geometry" />
        </mxCell>
        <mxCell id="gtM7jIJjJAzTYsThCUeF-2" value="Profil" style="rounded=0;whiteSpace=wrap;html=1;" parent="1" vertex="1">
          <mxGeometry x="175" y="160" width="80" height="40" as="geometry" />
        </mxCell>
        <mxCell id="gtM7jIJjJAzTYsThCUeF-72" style="edgeStyle=orthogonalEdgeStyle;rounded=0;orthogonalLoop=1;jettySize=auto;html=1;exitX=0;exitY=0.5;exitDx=0;exitDy=0;" parent="1" source="gtM7jIJjJAzTYsThCUeF-4" target="gtM7jIJjJAzTYsThCUeF-23" edge="1">
          <mxGeometry relative="1" as="geometry" />
        </mxCell>
        <mxCell id="gtM7jIJjJAzTYsThCUeF-73" style="edgeStyle=orthogonalEdgeStyle;rounded=0;orthogonalLoop=1;jettySize=auto;html=1;exitX=0;exitY=0;exitDx=0;exitDy=0;entryX=1;entryY=0.5;entryDx=0;entryDy=0;" parent="1" source="gtM7jIJjJAzTYsThCUeF-4" target="gtM7jIJjJAzTYsThCUeF-26" edge="1">
          <mxGeometry relative="1" as="geometry" />
        </mxCell>
        <mxCell id="gtM7jIJjJAzTYsThCUeF-74" style="edgeStyle=orthogonalEdgeStyle;rounded=0;orthogonalLoop=1;jettySize=auto;html=1;exitX=0;exitY=1;exitDx=0;exitDy=0;entryX=1;entryY=0.5;entryDx=0;entryDy=0;" parent="1" source="gtM7jIJjJAzTYsThCUeF-4" target="gtM7jIJjJAzTYsThCUeF-24" edge="1">
          <mxGeometry relative="1" as="geometry" />
        </mxCell>
        <mxCell id="gtM7jIJjJAzTYsThCUeF-4" value="Korisnik" style="rounded=0;whiteSpace=wrap;html=1;" parent="1" vertex="1">
          <mxGeometry x="-80" y="160" width="80" height="40" as="geometry" />
        </mxCell>
        <mxCell id="gtM7jIJjJAzTYsThCUeF-19" style="edgeStyle=orthogonalEdgeStyle;shape=link;rounded=0;orthogonalLoop=1;jettySize=auto;html=1;exitX=1;exitY=0.5;exitDx=0;exitDy=0;entryX=0;entryY=0.5;entryDx=0;entryDy=0;" parent="1" source="gtM7jIJjJAzTYsThCUeF-5" target="gtM7jIJjJAzTYsThCUeF-16" edge="1">
          <mxGeometry relative="1" as="geometry" />
        </mxCell>
        <mxCell id="gtM7jIJjJAzTYsThCUeF-39" style="edgeStyle=orthogonalEdgeStyle;rounded=0;orthogonalLoop=1;jettySize=auto;html=1;exitX=0.25;exitY=1;exitDx=0;exitDy=0;entryX=0.5;entryY=0;entryDx=0;entryDy=0;" parent="1" source="gtM7jIJjJAzTYsThCUeF-5" target="gtM7jIJjJAzTYsThCUeF-37" edge="1">
          <mxGeometry relative="1" as="geometry" />
        </mxCell>
        <mxCell id="gtM7jIJjJAzTYsThCUeF-40" style="edgeStyle=orthogonalEdgeStyle;rounded=0;orthogonalLoop=1;jettySize=auto;html=1;exitX=0.75;exitY=1;exitDx=0;exitDy=0;entryX=0.5;entryY=0;entryDx=0;entryDy=0;" parent="1" source="gtM7jIJjJAzTYsThCUeF-5" target="gtM7jIJjJAzTYsThCUeF-38" edge="1">
          <mxGeometry relative="1" as="geometry" />
        </mxCell>
        <mxCell id="gtM7jIJjJAzTYsThCUeF-5" value="Obrok" style="rounded=0;whiteSpace=wrap;html=1;" parent="1" vertex="1">
          <mxGeometry x="620" y="160" width="80" height="40" as="geometry" />
        </mxCell>
        <mxCell id="gtM7jIJjJAzTYsThCUeF-43" style="edgeStyle=orthogonalEdgeStyle;rounded=0;orthogonalLoop=1;jettySize=auto;html=1;exitX=0.25;exitY=0;exitDx=0;exitDy=0;entryX=0.5;entryY=1;entryDx=0;entryDy=0;" parent="1" source="gtM7jIJjJAzTYsThCUeF-6" target="gtM7jIJjJAzTYsThCUeF-42" edge="1">
          <mxGeometry relative="1" as="geometry" />
        </mxCell>
        <mxCell id="gtM7jIJjJAzTYsThCUeF-44" style="edgeStyle=orthogonalEdgeStyle;rounded=0;orthogonalLoop=1;jettySize=auto;html=1;exitX=0.75;exitY=0;exitDx=0;exitDy=0;entryX=0.5;entryY=1;entryDx=0;entryDy=0;" parent="1" source="gtM7jIJjJAzTYsThCUeF-6" target="gtM7jIJjJAzTYsThCUeF-41" edge="1">
          <mxGeometry relative="1" as="geometry" />
        </mxCell>
        <mxCell id="gtM7jIJjJAzTYsThCUeF-6" value="Nutritivne informacije" style="rounded=0;whiteSpace=wrap;html=1;" parent="1" vertex="1">
          <mxGeometry x="870" y="160" width="80" height="40" as="geometry" />
        </mxCell>
        <mxCell id="gtM7jIJjJAzTYsThCUeF-71" style="edgeStyle=orthogonalEdgeStyle;shape=link;rounded=0;orthogonalLoop=1;jettySize=auto;html=1;exitX=0;exitY=0.5;exitDx=0;exitDy=0;entryX=1;entryY=0.5;entryDx=0;entryDy=0;" parent="1" source="gtM7jIJjJAzTYsThCUeF-8" target="gtM7jIJjJAzTYsThCUeF-4" edge="1">
          <mxGeometry relative="1" as="geometry" />
        </mxCell>
        <mxCell id="gtM7jIJjJAzTYsThCUeF-8" value="Kreira" style="rhombus;whiteSpace=wrap;html=1;" parent="1" vertex="1">
          <mxGeometry x="60" y="155" width="60" height="50" as="geometry" />
        </mxCell>
        <mxCell id="gtM7jIJjJAzTYsThCUeF-55" style="edgeStyle=orthogonalEdgeStyle;shape=link;rounded=0;orthogonalLoop=1;jettySize=auto;html=1;exitX=1;exitY=0.5;exitDx=0;exitDy=0;entryX=0;entryY=0.5;entryDx=0;entryDy=0;" parent="1" source="gtM7jIJjJAzTYsThCUeF-15" target="gtM7jIJjJAzTYsThCUeF-51" edge="1">
          <mxGeometry relative="1" as="geometry" />
        </mxCell>
        <mxCell id="gtM7jIJjJAzTYsThCUeF-15" value="Ima" style="rhombus;whiteSpace=wrap;html=1;" parent="1" vertex="1">
          <mxGeometry x="310" y="155" width="60" height="50" as="geometry" />
        </mxCell>
        <mxCell id="gtM7jIJjJAzTYsThCUeF-20" style="edgeStyle=orthogonalEdgeStyle;shape=link;rounded=0;orthogonalLoop=1;jettySize=auto;html=1;exitX=1;exitY=0.5;exitDx=0;exitDy=0;entryX=0;entryY=0.5;entryDx=0;entryDy=0;" parent="1" source="gtM7jIJjJAzTYsThCUeF-16" target="gtM7jIJjJAzTYsThCUeF-6" edge="1">
          <mxGeometry relative="1" as="geometry" />
        </mxCell>
        <mxCell id="gtM7jIJjJAzTYsThCUeF-16" value="Ima" style="rhombus;whiteSpace=wrap;html=1;" parent="1" vertex="1">
          <mxGeometry x="750" y="155" width="60" height="50" as="geometry" />
        </mxCell>
        <mxCell id="gtM7jIJjJAzTYsThCUeF-23" value="Korisničko ime" style="ellipse;whiteSpace=wrap;html=1;" parent="1" vertex="1">
          <mxGeometry x="-210" y="160" width="70" height="40" as="geometry" />
        </mxCell>
        <mxCell id="gtM7jIJjJAzTYsThCUeF-24" value="Šifra" style="ellipse;whiteSpace=wrap;html=1;" parent="1" vertex="1">
          <mxGeometry x="-210" y="240" width="70" height="40" as="geometry" />
        </mxCell>
        <mxCell id="gtM7jIJjJAzTYsThCUeF-26" value="Email" style="ellipse;whiteSpace=wrap;html=1;" parent="1" vertex="1">
          <mxGeometry x="-210" y="80" width="70" height="40" as="geometry" />
        </mxCell>
        <mxCell id="gtM7jIJjJAzTYsThCUeF-31" value="Visina" style="ellipse;whiteSpace=wrap;html=1;" parent="1" vertex="1">
          <mxGeometry x="100" y="80" width="70" height="40" as="geometry" />
        </mxCell>
        <mxCell id="gtM7jIJjJAzTYsThCUeF-32" value="Težina" style="ellipse;whiteSpace=wrap;html=1;" parent="1" vertex="1">
          <mxGeometry x="180" y="80" width="70" height="40" as="geometry" />
        </mxCell>
        <mxCell id="gtM7jIJjJAzTYsThCUeF-33" value="Šifra" style="ellipse;whiteSpace=wrap;html=1;" parent="1" vertex="1">
          <mxGeometry x="270" y="80" width="70" height="40" as="geometry" />
        </mxCell>
        <mxCell id="gtM7jIJjJAzTYsThCUeF-37" value="Naziv" style="ellipse;whiteSpace=wrap;html=1;" parent="1" vertex="1">
          <mxGeometry x="560" y="240" width="70" height="40" as="geometry" />
        </mxCell>
        <mxCell id="gtM7jIJjJAzTYsThCUeF-38" value="Šifra" style="ellipse;whiteSpace=wrap;html=1;" parent="1" vertex="1">
          <mxGeometry x="700" y="240" width="70" height="40" as="geometry" />
        </mxCell>
        <mxCell id="gtM7jIJjJAzTYsThCUeF-41" value="Šifra" style="ellipse;whiteSpace=wrap;html=1;" parent="1" vertex="1">
          <mxGeometry x="950" y="80" width="70" height="40" as="geometry" />
        </mxCell>
        <mxCell id="gtM7jIJjJAzTYsThCUeF-42" value="Kalorije" style="ellipse;whiteSpace=wrap;html=1;" parent="1" vertex="1">
          <mxGeometry x="810" y="80" width="70" height="40" as="geometry" />
        </mxCell>
        <mxCell id="gtM7jIJjJAzTYsThCUeF-49" value="1" style="text;html=1;align=center;verticalAlign=middle;whiteSpace=wrap;rounded=0;" parent="1" vertex="1">
          <mxGeometry y="155" width="30" height="20" as="geometry" />
        </mxCell>
        <mxCell id="gtM7jIJjJAzTYsThCUeF-56" style="edgeStyle=orthogonalEdgeStyle;shape=link;rounded=0;orthogonalLoop=1;jettySize=auto;html=1;exitX=1;exitY=0.5;exitDx=0;exitDy=0;entryX=0;entryY=0.5;entryDx=0;entryDy=0;" parent="1" source="gtM7jIJjJAzTYsThCUeF-59" target="gtM7jIJjJAzTYsThCUeF-5" edge="1">
          <mxGeometry relative="1" as="geometry" />
        </mxCell>
        <mxCell id="gtM7jIJjJAzTYsThCUeF-76" style="edgeStyle=orthogonalEdgeStyle;rounded=0;orthogonalLoop=1;jettySize=auto;html=1;exitX=0.5;exitY=1;exitDx=0;exitDy=0;entryX=0.5;entryY=0;entryDx=0;entryDy=0;shape=link;" parent="1" source="gtM7jIJjJAzTYsThCUeF-77" target="gtM7jIJjJAzTYsThCUeF-75" edge="1">
          <mxGeometry relative="1" as="geometry" />
        </mxCell>
        <mxCell id="gtM7jIJjJAzTYsThCUeF-83" style="edgeStyle=orthogonalEdgeStyle;rounded=0;orthogonalLoop=1;jettySize=auto;html=1;exitX=0.25;exitY=0;exitDx=0;exitDy=0;entryX=0.5;entryY=1;entryDx=0;entryDy=0;" parent="1" source="gtM7jIJjJAzTYsThCUeF-51" target="gtM7jIJjJAzTYsThCUeF-82" edge="1">
          <mxGeometry relative="1" as="geometry" />
        </mxCell>
        <mxCell id="gtM7jIJjJAzTYsThCUeF-84" style="edgeStyle=orthogonalEdgeStyle;rounded=0;orthogonalLoop=1;jettySize=auto;html=1;exitX=0.75;exitY=0;exitDx=0;exitDy=0;entryX=0.5;entryY=1;entryDx=0;entryDy=0;" parent="1" source="gtM7jIJjJAzTYsThCUeF-51" target="gtM7jIJjJAzTYsThCUeF-81" edge="1">
          <mxGeometry relative="1" as="geometry" />
        </mxCell>
        <mxCell id="gtM7jIJjJAzTYsThCUeF-51" value="Dnevnik Pehrane" style="rounded=0;whiteSpace=wrap;html=1;" parent="1" vertex="1">
          <mxGeometry x="420" y="160" width="80" height="40" as="geometry" />
        </mxCell>
        <mxCell id="gtM7jIJjJAzTYsThCUeF-57" value="1" style="text;html=1;align=center;verticalAlign=middle;whiteSpace=wrap;rounded=0;" parent="1" vertex="1">
          <mxGeometry x="260" y="155" width="30" height="20" as="geometry" />
        </mxCell>
        <mxCell id="gtM7jIJjJAzTYsThCUeF-58" value="N" style="text;html=1;align=center;verticalAlign=middle;whiteSpace=wrap;rounded=0;" parent="1" vertex="1">
          <mxGeometry x="390" y="155" width="30" height="20" as="geometry" />
        </mxCell>
        <mxCell id="gtM7jIJjJAzTYsThCUeF-60" value="" style="edgeStyle=orthogonalEdgeStyle;shape=link;rounded=0;orthogonalLoop=1;jettySize=auto;html=1;exitX=1;exitY=0.5;exitDx=0;exitDy=0;entryX=0;entryY=0.5;entryDx=0;entryDy=0;" parent="1" source="gtM7jIJjJAzTYsThCUeF-51" target="gtM7jIJjJAzTYsThCUeF-59" edge="1">
          <mxGeometry relative="1" as="geometry">
            <mxPoint x="520" y="180" as="sourcePoint" />
            <mxPoint x="620" y="180" as="targetPoint" />
          </mxGeometry>
        </mxCell>
        <mxCell id="gtM7jIJjJAzTYsThCUeF-59" value="Sadrži" style="rhombus;whiteSpace=wrap;html=1;" parent="1" vertex="1">
          <mxGeometry x="530" y="155" width="60" height="50" as="geometry" />
        </mxCell>
        <mxCell id="gtM7jIJjJAzTYsThCUeF-61" value="1" style="text;html=1;align=center;verticalAlign=middle;whiteSpace=wrap;rounded=0;" parent="1" vertex="1">
          <mxGeometry x="500" y="155" width="30" height="20" as="geometry" />
        </mxCell>
        <mxCell id="gtM7jIJjJAzTYsThCUeF-62" value="N" style="text;html=1;align=center;verticalAlign=middle;whiteSpace=wrap;rounded=0;" parent="1" vertex="1">
          <mxGeometry x="590" y="155" width="30" height="20" as="geometry" />
        </mxCell>
        <mxCell id="gtM7jIJjJAzTYsThCUeF-63" value="1" style="text;html=1;align=center;verticalAlign=middle;whiteSpace=wrap;rounded=0;" parent="1" vertex="1">
          <mxGeometry x="700" y="155" width="30" height="20" as="geometry" />
        </mxCell>
        <mxCell id="gtM7jIJjJAzTYsThCUeF-64" value="N" style="text;html=1;align=center;verticalAlign=middle;whiteSpace=wrap;rounded=0;" parent="1" vertex="1">
          <mxGeometry x="840" y="155" width="30" height="20" as="geometry" />
        </mxCell>
        <mxCell id="gtM7jIJjJAzTYsThCUeF-87" style="edgeStyle=orthogonalEdgeStyle;rounded=0;orthogonalLoop=1;jettySize=auto;html=1;exitX=0.25;exitY=1;exitDx=0;exitDy=0;entryX=0.5;entryY=0;entryDx=0;entryDy=0;" parent="1" source="gtM7jIJjJAzTYsThCUeF-75" target="gtM7jIJjJAzTYsThCUeF-86" edge="1">
          <mxGeometry relative="1" as="geometry" />
        </mxCell>
        <mxCell id="gtM7jIJjJAzTYsThCUeF-88" style="edgeStyle=orthogonalEdgeStyle;rounded=0;orthogonalLoop=1;jettySize=auto;html=1;exitX=0.75;exitY=1;exitDx=0;exitDy=0;entryX=0.5;entryY=0;entryDx=0;entryDy=0;" parent="1" source="gtM7jIJjJAzTYsThCUeF-75" target="gtM7jIJjJAzTYsThCUeF-85" edge="1">
          <mxGeometry relative="1" as="geometry" />
        </mxCell>
        <mxCell id="gtM7jIJjJAzTYsThCUeF-75" value="Komentar" style="rounded=0;whiteSpace=wrap;html=1;" parent="1" vertex="1">
          <mxGeometry x="420" y="330" width="80" height="40" as="geometry" />
        </mxCell>
        <mxCell id="gtM7jIJjJAzTYsThCUeF-78" value="" style="edgeStyle=orthogonalEdgeStyle;rounded=0;orthogonalLoop=1;jettySize=auto;html=1;exitX=0.5;exitY=1;exitDx=0;exitDy=0;entryX=0.5;entryY=0;entryDx=0;entryDy=0;shape=link;" parent="1" source="gtM7jIJjJAzTYsThCUeF-51" target="gtM7jIJjJAzTYsThCUeF-77" edge="1">
          <mxGeometry relative="1" as="geometry">
            <mxPoint x="460" y="200" as="sourcePoint" />
            <mxPoint x="460" y="330" as="targetPoint" />
          </mxGeometry>
        </mxCell>
        <mxCell id="gtM7jIJjJAzTYsThCUeF-77" value="Ima" style="rhombus;whiteSpace=wrap;html=1;" parent="1" vertex="1">
          <mxGeometry x="430" y="240" width="60" height="50" as="geometry" />
        </mxCell>
        <mxCell id="gtM7jIJjJAzTYsThCUeF-79" value="1" style="text;html=1;align=center;verticalAlign=middle;whiteSpace=wrap;rounded=0;" parent="1" vertex="1">
          <mxGeometry x="460" y="205" width="30" height="20" as="geometry" />
        </mxCell>
        <mxCell id="gtM7jIJjJAzTYsThCUeF-80" value="N" style="text;html=1;align=center;verticalAlign=middle;whiteSpace=wrap;rounded=0;" parent="1" vertex="1">
          <mxGeometry x="460" y="310" width="30" height="20" as="geometry" />
        </mxCell>
        <mxCell id="gtM7jIJjJAzTYsThCUeF-81" value="Šifra" style="ellipse;whiteSpace=wrap;html=1;" parent="1" vertex="1">
          <mxGeometry x="480" y="80" width="70" height="40" as="geometry" />
        </mxCell>
        <mxCell id="gtM7jIJjJAzTYsThCUeF-82" value="Naziv" style="ellipse;whiteSpace=wrap;html=1;" parent="1" vertex="1">
          <mxGeometry x="378.5" y="80" width="70" height="40" as="geometry" />
        </mxCell>
        <mxCell id="gtM7jIJjJAzTYsThCUeF-85" value="Šifra" style="ellipse;whiteSpace=wrap;html=1;" parent="1" vertex="1">
          <mxGeometry x="480" y="420" width="70" height="40" as="geometry" />
        </mxCell>
        <mxCell id="gtM7jIJjJAzTYsThCUeF-86" value="Tekst" style="ellipse;whiteSpace=wrap;html=1;" parent="1" vertex="1">
          <mxGeometry x="390" y="420" width="70" height="40" as="geometry" />
        </mxCell>
        <mxCell id="DTlccwr20ukgJjFtvN08-1" value="N" style="text;html=1;align=center;verticalAlign=middle;whiteSpace=wrap;rounded=0;" vertex="1" parent="1">
          <mxGeometry x="150" y="155" width="30" height="20" as="geometry" />
        </mxCell>
      </root>
    </mxGraphModel>
  </diagram>
</mxfile>
